<svg xmlns="http://www.w3.org/2000/svg" viewBox="0 0 900 540" role="img" aria-label="Friday — Individual FB Session">
<title>Friday — Individual FB Session</title>
<rect x="0" y="0" width="900" height="540" fill="#0b7a3b"/>
<rect x="27.0" y="16.2" width="846.0" height="507.59999999999997" fill="none" stroke="white" stroke-width="5.4"/>
<line x1="450.0" y1="16.2" x2="450.0" y2="523.8" stroke="white" stroke-width="3.6"/>
<circle cx="450.0" cy="270.0" r="99.0" fill="none" stroke="white" stroke-width="3.6"/>
<circle cx="450.0" cy="270.0" r="5.4" fill="white"/>
<rect x="27.0" y="151.20000000000002" width="162.0" height="237.6" fill="none" stroke="white" stroke-width="3.6"/>
<rect x="711.0" y="151.20000000000002" width="162.0" height="237.6" fill="none" stroke="white" stroke-width="3.6"/>
<rect x="27.0" y="210.6" width="54.0" height="118.8" fill="none" stroke="white" stroke-width="3.6"/>
<rect x="819.0" y="210.6" width="54.0" height="118.8" fill="none" stroke="white" stroke-width="3.6"/>
<defs>
<marker id="arrow" markerWidth="10" markerHeight="10" refX="8" refY="3" orient="auto" markerUnits="strokeWidth">
      <path d="M0,0 L8,3 L0,6 Z" fill="white"/>
    </marker>
<marker id="arrowDark" markerWidth="10" markerHeight="10" refX="8" refY="3" orient="auto" markerUnits="strokeWidth">
      <path d="M0,0 L8,3 L0,6 Z" fill="#111"/>
    </marker>
</defs>
<rect x="90.0" y="360.0" width="270.0" height="162.0" fill="rgba(255,255,255,0.08)" stroke="rgba(255,255,255,0.6)" stroke-width="2.7" rx="9.0"/>
<text x="225.0" y="441.0" text-anchor="middle" font-family="Inter, Arial" font-size="18.0" fill="white" opacity="0.9">FB lane</text>
<circle cx="135.0" cy="468.0" r="10.8" fill="#ffb703" stroke="white" stroke-width="2.7"/>
<text x="135.0" y="471.78" text-anchor="middle" font-family="Inter, Arial" font-size="11.880000000000003" fill="#111">FB</text>
<circle cx="225.0" cy="432.0" r="10.8" fill="#1e90ff" stroke="white" stroke-width="2.7"/>
<circle cx="315.0" cy="396.0" r="10.8" fill="#e63946" stroke="white" stroke-width="2.7"/>
<line x1="135.0" y1="468.0" x2="198.0" y2="450.0" stroke="white" stroke-width="3.6" marker-end="url(#arrow)" />
<line x1="198.0" y1="450.0" x2="270.0" y2="414.0" stroke="white" stroke-width="3.6" marker-end="url(#arrow)" />
<line x1="270.0" y1="414.0" x2="342.0" y2="360.0" stroke="white" stroke-width="3.6" marker-end="url(#arrow)" />
<text x="450.0" y="495.0" text-anchor="middle" font-family="Inter, Arial" font-size="18" fill="white" opacity="1">Individual (15–20’) — receive open, carry forward, decide (pass/overlap)</text>
</svg>